<svg xmlns="http://www.w3.org/2000/svg" viewBox="0 0 20 20" fill="none">
  <path d="M14.2884 6.0392V4.12202C14.2884 3.258 13.4734 2.62672 12.6366 2.84234L5.64899 4.6451C5.14225 4.77664 4.78809 5.23356 4.78809 5.75664V15.4842C4.78809 16.4323 5.55636 17.1998 6.50367 17.1998H14.258C15.2061 17.1998 15.9736 16.4323 15.9736 15.4842V7.94626C15.9736 6.99818 15.2061 6.23068 14.258 6.23068H4.78809" stroke="inherit" stroke-width="1.44" stroke-linecap="round" stroke-linejoin="round"/>
  <path fill-rule="evenodd" clip-rule="evenodd" d="M8.17283 11.6553C7.91363 10.8443 8.21643 9.91799 9.06795 9.64327C9.51555 9.49999 10.0052 9.58255 10.3819 9.86431C10.7587 9.58487 11.246 9.50311 11.6935 9.64327C12.5443 9.91799 12.8502 10.8443 12.5902 11.6553C12.1862 12.9397 10.3819 13.9298 10.3819 13.9298C10.3819 13.9298 8.59083 12.9545 8.17283 11.6553Z" stroke="inherit" stroke-width="1.44" stroke-linecap="round" stroke-linejoin="round"/>
</svg>