<svg xmlns="http://www.w3.org/2000/svg" viewBox="0 0 18 16" fill="none">
  <path d="M7.13314 9.72691C6.65397 9.24858 6.3623 8.59858 6.3623 7.86941C6.3623 6.40858 7.53897 5.23108 8.99897 5.23108C9.72147 5.23108 10.3865 5.52358 10.8573 6.00191" stroke="inherit" stroke-width="1.5" stroke-linecap="round" stroke-linejoin="round"/>
  <path d="M11.5868 8.33704C11.3935 9.41204 10.5468 10.2604 9.47266 10.4554" stroke="inherit" stroke-width="1.5" stroke-linecap="round" stroke-linejoin="round"/>
  <path d="M4.54518 12.3149C3.22268 11.2765 2.10268 9.75987 1.29102 7.86904C2.11102 5.96987 3.23852 4.44487 4.56935 3.3982C5.89185 2.35154 7.41768 1.7832 8.99935 1.7832C10.5902 1.7832 12.1152 2.35987 13.446 3.41404" stroke="inherit" stroke-width="1.5" stroke-linecap="round" stroke-linejoin="round"/>
  <path d="M15.2063 5.24695C15.7796 6.00861 16.2838 6.88778 16.708 7.86861C15.0688 11.6661 12.1721 13.9536 8.99965 13.9536C8.28048 13.9536 7.57132 13.8369 6.88965 13.6094" stroke="inherit" stroke-width="1.5" stroke-linecap="round" stroke-linejoin="round"/>
  <path d="M15.5718 1.2959L2.42676 14.4409" stroke="inherit" stroke-width="1.5" stroke-linecap="round" stroke-linejoin="round"/>
</svg>