<svg xmlns="http://www.w3.org/2000/svg" width="28" height="19" viewBox="0 0 28 19" fill="none">
            <path
              fill-rule="evenodd"
              clip-rule="evenodd"
              d="M24.6782 0.465028C24.3903 0.105793 23.8212 0.0170713 23.4071 0.266863C22.993 0.516654 22.8907 1.01037 23.1786 1.3696C24.8969 3.51337 25.8657 6.35654 25.8657 9.43977C25.8657 12.5233 24.8968 15.3674 23.1786 17.511C22.8907 17.8702 22.993 18.3639 23.4071 18.6137C23.8212 18.8635 24.3903 18.7748 24.6782 18.4156C26.6154 15.9986 27.6922 12.8381 27.6922 9.43977C27.6922 6.0417 26.6156 2.88213 24.6782 0.465028ZM12.43 0.396506L12.6196 0.390208L12.7923 0.391807C14.0286 0.443282 15.0856 1.23395 15.4903 2.40641C15.603 2.78024 15.6667 3.14584 15.7409 3.74101L15.8395 4.52098C16.0383 6.32904 16.0319 13.4313 15.8206 14.8954L15.6895 15.9454C15.6376 16.2995 15.5785 16.5719 15.4816 16.8844C15.0634 18.0958 13.9096 18.9074 12.6338 18.874C11.9844 18.8879 11.1935 18.6012 10.6434 18.1999L6.3086 15.145L4.0776 15.1455C2.43407 15.1455 1.26346 14.1884 0.97593 12.7283L0.943467 12.5351C0.69999 11.0337 0.707553 8.30402 0.943365 6.66318C1.17935 5.19948 2.41156 4.11963 4.0776 4.11963L6.30738 4.11905L10.5341 1.13109C11.0458 0.755058 11.8094 0.44577 12.43 0.396506ZM12.638 1.97395L12.5917 1.9741C12.4443 1.97135 11.9707 2.15196 11.7014 2.34967L7.20973 5.52596C7.04677 5.64119 6.84297 5.70412 6.63273 5.70412H4.0776C3.38564 5.70412 2.86927 6.15665 2.75401 6.87089C2.53916 8.36652 2.53198 10.9569 2.75438 12.3293C2.86982 13.155 3.33735 13.561 4.0776 13.561H6.63273C6.84241 13.561 7.04571 13.6236 7.20848 13.7383L11.8068 16.9785C12.0516 17.157 12.4279 17.2934 12.638 17.2901C13.0916 17.3016 13.5399 16.9863 13.7247 16.452C13.8208 16.1409 13.8709 15.8498 13.9329 15.3148L13.9734 14.9668L14.008 14.701C14.2073 13.3194 14.2073 5.94575 14.0077 4.56172L13.8779 3.55819C13.8473 3.34641 13.8176 3.17863 13.7846 3.03477L13.732 2.83443C13.5398 2.27839 13.091 1.96248 12.638 1.97395ZM19.2293 3.49973C19.6434 3.24996 20.2125 3.33871 20.5004 3.69796C21.7443 5.25009 22.4331 7.27162 22.4331 9.4403C22.4331 11.6088 21.7445 13.6293 20.5004 15.1816C20.2125 15.5408 19.6434 15.6296 19.2293 15.3798C18.8152 15.13 18.7129 14.6363 19.0008 14.2771C20.0258 12.998 20.6066 11.2939 20.6066 9.4403C20.6066 7.58642 20.0257 5.88127 19.0008 4.60246C18.7129 4.24321 18.8152 3.7495 19.2293 3.49973Z"
              fill="white"
            />
          </svg>