 <svg xmlns="http://www.w3.org/2000/svg" width="16" height="16" viewBox="0 0 16 16" fill="none">
<path
              d="M2.40039 2.5C2.40039 2.22386 2.62425 2 2.90039 2H5.40039C5.67653 2 5.90039 2.22386 5.90039 2.5V13.5C5.90039 13.7761 5.67653 14 5.40039 14H2.90039C2.62425 14 2.40039 13.7761 2.40039 13.5V2.5Z"
              fill="white"
            />
<path
              d="M10.4004 2.5C10.4004 2.22386 10.6242 2 10.9004 2H13.4004C13.6765 2 13.9004 2.22386 13.9004 2.5V13.5C13.9004 13.7761 13.6765 14 13.4004 14H10.9004C10.6242 14 10.4004 13.7761 10.4004 13.5V2.5Z"
              fill="white"
            />
</svg>